PathFileType	4	(X/Y/Z)	Kaydara																																																																																																																									
DataRate	CameraRate	NumFrames	NumMarkers	Units	OrigDataRate	OrigDataStartFrame	OrigNumFrames																																																																																																																					
30	30	4	41	mm	30	119	115																																																																																																																					
Frame#	Time	PAIB_LFHD			PAIB_RFHD			PAIB_LBHD			PAIB_RBHD			PAIB_LFTShould			PAIB_RFTShould			PAIB_LRRShould			PAIB_RRRShould			PAIB_T10			PAIB_STRN			PAIB_TRUN			PAIB_LSHO			PAIB_LUPA			PAIB_LELB			PAIB_LFRM			PAIB_LWRA			PAIB_LWRB			PAIB_LFIN			PAIB_RSHO			PAIB_RUPA			PAIB_RELB			PAIB_RFRM			PAIB_RWRA			PAIB_RWRB			PAIB_RFIN			PAIB_LFWT			PAIB_RFWT			PAIB_LBWT			PAIB_RBWT			PAIB_LTHI			PAIB_LKNE			PAIB_LSHN			PAIB_LANK			PAIB_LHEE			PAIB_LTOE			PAIB_RTHI			PAIB_RKNE			PAIB_RSHN			PAIB_RANK			PAIB_RHEE			PAIB_RTOE		
		X1	Y1	Z1	X2	Y2	Z2	X3	Y3	Z3	X4	Y4	Z4	X5	Y5	Z5	X6	Y6	Z6	X7	Y7	Z7	X8	Y8	Z8	X9	Y9	Z9	X10	Y10	Z10	X11	Y11	Z11	X12	Y12	Z12	X13	Y13	Z13	X14	Y14	Z14	X15	Y15	Z15	X16	Y16	Z16	X17	Y17	Z17	X18	Y18	Z18	X19	Y19	Z19	X20	Y20	Z20	X21	Y21	Z21	X22	Y22	Z22	X23	Y23	Z23	X24	Y24	Z24	X25	Y25	Z25	X26	Y26	Z26	X27	Y27	Z27	X28	Y28	Z28	X29	Y29	Z29	X30	Y30	Z30	X31	Y31	Z31	X32	Y32	Z32	X33	Y33	Z33	X34	Y34	Z34	X35	Y35	Z35	X36	Y36	Z36	X37	Y37	Z37	X38	Y38	Z38	X39	Y39	Z39	X40	Y40	Z40	X41	Y41	Z41
																																																																																																																												
101	3.933	270.6629	1562.53265	1939.33411	85.48497	1562.3558	1931.65466	283.08006	1544.67697	1811.93008	79.02552	1555.84549	1816.44104	231.36744	1298.88763	1897.44492	108.70957	1295.22797	1878.2933	259.77268	1388.3873	1765.82764	107.75885	1389.22806	1758.49991	190.28473	1244.4384	1656.95404	176.19833	1227.41875	1916.02402	177.51514	1123.53546	1921.46042	368.64086	1326.05988	1837.50458	446.67538	1106.59355	1834.03717	470.77805	1025.43228	1811.25137	421.18221	960.87677	1914.32358	296.56504	952.6976	2001.96014	343.71365	887.332	1991.05133	316.81511	911.37344	2056.94168	-10.73533	1324.20151	1802.90024	-89.22337	1225.96733	1670.70358	-140.8724	1145.22934	1606.62506	-204.55368	1034.91272	1554.73267	-208.48022	883.75153	1578.24585	-264.07677	923.57254	1525.12451	-284.59206	862.25296	1565.24796	320.48977	860.43274	1826.48575	90.09318	869.96559	1864.34891	211.54535	915.69756	1623.76724	71.8249	911.57234	1649.02939	257.67969	703.10593	1572.56378	323.19229	442.52911	1550.71976	293.68494	275.92442	1447.50656	279.86797	186.82816	1261.57791	217.64353	207.68118	1225.55374	262.4649	40.05763	1345.72433	31.43854	609.16874	1787.84607	33.59913	453.77289	2004.7847	97.72263	272.90304	2061.50772	65.66144	65.39979	2010.85175	126.86521	62.70978	1967.13242	93.5477	52.53805	2210.26413
102	3.967	265.29726	1565.62088	2009.71817	80.30113	1566.36093	2002.19543	277.60933	1546.30997	1882.38037	73.65585	1558.41156	1886.85745	227.05912	1300.29816	1968.94226	105.52102	1297.35886	1950.1503	255.92089	1393.28384	1838.45932	103.07268	1393.02094	1831.10779	187.99938	1251.36276	1725.03784	172.14281	1228.45062	1986.56311	172.61724	1124.27292	1989.98505	363.52234	1329.60327	1911.78955	441.11931	1110.2372	1893.24127	468.66451	1031.53709	1864.64523	429.45667	952.80609	1962.70248	310.69954	926.58272	2055.08606	361.34792	866.57761	2034.48242	340.10658	882.892	2104.19113	-13.79059	1323.4903	1877.99469	-92.76077	1217.22054	1753.45673	-142.85711	1132.5563	1692.8894	-205.42608	1020.15732	1645.52109	-204.60844	869.18526	1671.92123	-263.39998	907.24388	1620.54794	-281.05631	845.94261	1662.29858	310.74757	862.01866	1897.50061	78.30913	880.75661	1929.8558	217.57589	911.69762	1690.45761	73.78863	915.59822	1710.87891	260.35397	686.4798	1651.73828	321.76514	417.04449	1663.69507	289.53802	273.74073	1534.46411	284.58002	221.97891	1334.61884	226.77208	255.00645	1300.96085	264.09618	48.3967	1378.81805	20.79345	616.63445	1852.98492	25.45947	454.3911	2060.57465	96.51192	270.28347	2096.87775	68.08568	66.83949	2019.74014	127.69538	67.90952	1976.25565	89.66329	36.27173	2212.64038
103	4	262.50235	1576.23215	2078.65265	77.38982	1575.68253	2071.69586	274.54336	1558.62656	1950.79315	70.4138	1569.18732	1956.05881	228.42583	1311.03302	2032.81494	105.32022	1307.97119	2017.556	252.41238	1405.86914	1902.57858	99.33865	1404.70459	1899.5163	182.25986	1264.3396	1790.53848	173.92437	1238.79578	2051.47873	174.88487	1134.47388	2053.22586	362.94922	1341.73798	1971.36322	437.02217	1122.18239	1947.82501	466.14922	1044.83665	1911.91727	440.72624	950.63232	1999.54086	330.93697	898.98079	2093.38165	386.06403	849.04617	2060.61325	369.26731	851.58554	2132.76199	-14.48452	1332.08328	1950.1236	-97.09605	1217.4028	1834.16214	-145.56494	1127.55432	1779.4516	-203.70165	1007.48703	1744.62738	-189.24288	859.26773	1780.51666	-254.90864	889.17801	1732.34894	-264.02029	830.23285	1779.64386	304.28701	869.76929	1959.86374	69.77614	893.76335	1991.05972	212.88202	917.83455	1751.11267	70.74103	929.25064	1772.50168	263.10688	664.61273	1737.26166	320.81718	405.12493	1786.84158	284.13525	276.56317	1644.63837	282.30423	247.76577	1439.28787	225.57102	285.42368	1408.7204	261.70506	71.29791	1465.39047	20.70204	624.79889	1896.62384	23.97386	441.38618	2090.979	96.09333	260.06586	2115.96588	71.05826	65.71261	2021.81793	128.71849	69.79513	1980.34531	89.30406	32.24256	2218.44116
104	4.033	262.1768	1590.45441	2143.07053	77.42405	1589.74167	2139.15939	273.66499	1576.9783	2015.13901	69.35991	1586.39709	2023.24188	231.05629	1328.9064	2091.99768	109.00978	1325.19363	2081.85745	249.21225	1422.69684	1962.04208	96.4128	1421.51245	1963.22403	176.11004	1282.12326	1850.85815	177.80426	1256.05545	2112.41028	179.06143	1151.78963	2114.11621	363.59169	1359.00589	2025.20325	437.96448	1138.99399	1993.91815	464.27521	1063.4906	1953.38074	454.86652	956.20598	2025.94604	358.77167	876.66	2115.51315	417.08519	840.70946	2071.11755	403.99826	826.17126	2142.20169	-14.02709	1346.45996	2019.15604	-101.58566	1222.93037	1914.5491	-148.81413	1127.88857	1866.80847	-198.02118	998.99986	1849.66354	-164.31829	858.4893	1899.10568	-237.06932	876.07895	1855.64896	-235.41056	823.00453	1909.88312	298.1402	889.01764	2024.60724	63.95001	909.13025	2049.27292	212.99231	933.55141	1812.76382	69.64646	948.76846	1830.16937	258.2464	661.47034	1827.1933	322.38811	413.11501	1906.65359	282.61425	283.03755	1770.71045	276.90861	248.67044	1566.93436	220.7115	286.24523	1534.25964	249.68611	76.2309	1610.07813	18.3161	639.27567	1935.00549	25.35199	443.13507	2114.27673	96.68762	257.8072	2127.23267	69.11225	67.82117	2025.79208	127.98605	72.33814	1982.11288	91.65988	31.90042	2218.92731
